<?xml version="1.0" encoding="utf-8"?>
<svg version="1.1" xmlns:xlink="http://www.w3.org/1999/xlink" width="1151px" height="202px" xmlns="http://www.w3.org/2000/svg">
  <g transform="matrix(1 0 0 1 0 -58 )">
    <path d="M 0.5 0  L 0.5 200.070878274268  C 0 200.591186440678  0.714016933207904 201  1.62276575729069 201.5  L 574.143512305703 201.5  L 1148.37723424271 201  C 1149.28598306679 201  1150 200.591186440678  1150.5 200.070878274268  L 1150.5 0  L 0.5 0  Z " fill-rule="nonzero" fill="#ffffff" stroke="none" transform="matrix(1 0 0 1 0 58 )" />
    <path d="M 0.5 0  L 0.5 200.070878274268  C 0 200.591186440678  0.714016933207904 201  1.62276575729069 201.5  L 574.143512305703 201.5  L 1148.37723424271 201  C 1149.28598306679 201  1150 200.591186440678  1150.5 200.070878274268  L 1150.5 0  " stroke-width="1" stroke="#e9e9e9" fill="none" transform="matrix(1 0 0 1 0 58 )" />
  </g>
</svg>