<?xml version="1.0" encoding="utf-8"?>
<svg version="1.1" xmlns:xlink="http://www.w3.org/1999/xlink" width="1151px" height="248px" xmlns="http://www.w3.org/2000/svg">
  <g transform="matrix(1 0 0 1 9 -307 )">
    <path d="M 0.5 0  L 0.5 245.858243451464  C 0 246.497627118644  0.714016933207904 247  1.62276575729069 247.5  L 574.143512305703 247.5  L 1148.37723424271 247  C 1149.28598306679 247  1150 246.497627118644  1150.5 245.858243451464  L 1150.5 0  L 0.5 0  Z " fill-rule="nonzero" fill="#ffffff" stroke="none" transform="matrix(1 0 0 1 -9 307 )" />
    <path d="M 0.5 0  L 0.5 245.858243451464  C 0 246.497627118644  0.714016933207904 247  1.62276575729069 247.5  L 574.143512305703 247.5  L 1148.37723424271 247  C 1149.28598306679 247  1150 246.497627118644  1150.5 245.858243451464  L 1150.5 0  " stroke-width="1" stroke="#e9e9e9" fill="none" transform="matrix(1 0 0 1 -9 307 )" />
  </g>
</svg>