<?xml version="1.0" encoding="utf-8"?>
<svg version="1.1" xmlns:xlink="http://www.w3.org/1999/xlink" width="14px" height="14px" xmlns="http://www.w3.org/2000/svg">
  <g transform="matrix(1 0 0 1 -491 -741 )">
    <path d="M 2.796875 8.88671875  C 3.30208333333337 9.38411458333337  3.9453125 9.6328125  4.7265625 9.6328125  C 5.5234375 9.6328125  6.19270833333337 9.36197916666663  6.734375 8.8203125  C 6.80729166666663 8.7265625  6.81510416666663 8.6328125  6.7578125 8.5390625  L 6.40625 7.8984375  C 6.375 7.83072916666663  6.3125 7.78645833333337  6.21875 7.765625  C 6.13541666666663 7.75520833333337  6.06510416666663 7.78385416666663  6.0078125 7.8515625  L 5.9765625 7.875  C 5.95572916666663 7.89583333333337  5.92578125 7.921875  5.88671875 7.953125  C 5.84765625 7.984375  5.80208333333337 8.01953125  5.75 8.05859375  C 5.69791666666663 8.09765625  5.63671875 8.13541666666663  5.56640625 8.171875  C 5.49609375 8.20833333333337  5.421875 8.2421875  5.34375 8.2734375  C 5.265625 8.3046875  5.17838541666663 8.32942708333337  5.08203125 8.34765625  C 4.98567708333337 8.36588541666663  4.88802083333337 8.375  4.7890625 8.375  C 4.39322916666663 8.375  4.06770833333337 8.24479166666663  3.8125 7.984375  C 3.55729166666663 7.72395833333337  3.4296875 7.39322916666663  3.4296875 6.9921875  C 3.4296875 6.59635416666663  3.5546875 6.26953125  3.8046875 6.01171875  C 4.0546875 5.75390625  4.37239583333337 5.625  4.7578125 5.625  C 4.95052083333337 5.625  5.13671875 5.66145833333337  5.31640625 5.734375  C 5.49609375 5.80729166666663  5.62760416666663 5.88020833333337  5.7109375 5.953125  L 5.8359375 6.0625  C 5.89322916666663 6.11979166666663  5.9609375 6.14583333333337  6.0390625 6.140625  C 6.12239583333337 6.13020833333337  6.18489583333337 6.09375  6.2265625 6.03125  L 6.640625 5.421875  C 6.70833333333337 5.31770833333337  6.703125 5.21614583333337  6.625 5.1171875  C 6.609375 5.09635416666663  6.58072916666663 5.06510416666663  6.5390625 5.0234375  C 6.49739583333337 4.98177083333337  6.41927083333337 4.92057291666663  6.3046875 4.83984375  C 6.19010416666663 4.75911458333337  6.06380208333337 4.68619791666663  5.92578125 4.62109375  C 5.78776041666663 4.55598958333337  5.61197916666663 4.49739583333337  5.3984375 4.4453125  C 5.18489583333337 4.39322916666663  4.9609375 4.3671875  4.7265625 4.3671875  C 3.95572916666663 4.3671875  3.31510416666663 4.61848958333337  2.8046875 5.12109375  C 2.29427083333337 5.62369791666663  2.0390625 6.25  2.0390625 7  C 2.0390625 7.76041666666663  2.29166666666663 8.38932291666663  2.796875 8.88671875  Z M 7.71875 8.88671875  C 8.22395833333337 9.38411458333337  8.8671875 9.6328125  9.6484375 9.6328125  C 10.4453125 9.6328125  11.1145833333334 9.36197916666663  11.65625 8.8203125  C 11.7291666666666 8.7265625  11.7395833333334 8.6328125  11.6875 8.5390625  L 11.3359375 7.8984375  C 11.2942708333334 7.82552083333337  11.2291666666666 7.78125  11.140625 7.765625  C 11.0572916666666 7.75520833333337  10.9869791666666 7.78385416666663  10.9296875 7.8515625  L 10.8984375 7.875  C 10.8776041666666 7.89583333333337  10.84765625 7.921875  10.80859375 7.953125  C 10.76953125 7.984375  10.7239583333334 8.01953125  10.671875 8.05859375  C 10.6197916666666 8.09765625  10.55859375 8.13541666666663  10.48828125 8.171875  C 10.41796875 8.20833333333337  10.34375 8.2421875  10.265625 8.2734375  C 10.1875 8.3046875  10.1002604166666 8.32942708333337  10.00390625 8.34765625  C 9.90755208333337 8.36588541666663  9.80989583333337 8.375  9.7109375 8.375  C 9.31510416666663 8.375  8.98958333333337 8.24479166666663  8.734375 7.984375  C 8.47916666666663 7.72395833333337  8.3515625 7.39322916666663  8.3515625 6.9921875  C 8.3515625 6.59635416666663  8.4765625 6.26953125  8.7265625 6.01171875  C 8.9765625 5.75390625  9.29427083333337 5.625  9.6796875 5.625  C 9.87239583333337 5.625  10.05859375 5.66145833333337  10.23828125 5.734375  C 10.41796875 5.80729166666663  10.5494791666666 5.88020833333337  10.6328125 5.953125  L 10.7578125 6.0625  C 10.8151041666666 6.11979166666663  10.8828125 6.14583333333337  10.9609375 6.140625  C 11.0442708333334 6.13020833333337  11.1067708333334 6.09375  11.1484375 6.03125  L 11.5625 5.421875  C 11.6302083333334 5.31770833333337  11.625 5.21614583333337  11.546875 5.1171875  C 11.53125 5.09635416666663  11.5026041666666 5.06510416666663  11.4609375 5.0234375  C 11.4192708333334 4.98177083333337  11.3411458333334 4.92057291666663  11.2265625 4.83984375  C 11.1119791666666 4.75911458333337  10.9856770833334 4.68619791666663  10.84765625 4.62109375  C 10.7096354166666 4.55598958333337  10.5338541666666 4.49739583333337  10.3203125 4.4453125  C 10.1067708333334 4.39322916666663  9.8828125 4.3671875  9.6484375 4.3671875  C 8.8828125 4.3671875  8.24348958333337 4.61848958333337  7.73046875 5.12109375  C 7.21744791666663 5.62369791666663  6.9609375 6.25  6.9609375 7  C 6.9609375 7.76041666666663  7.21354166666663 8.38932291666663  7.71875 8.88671875  Z M 9.234375 1.70703125  C 8.52604166666663 1.40234375  7.78125 1.25  7 1.25  C 6.21875 1.25  5.47395833333337 1.40234375  4.765625 1.70703125  C 4.05729166666663 2.01171875  3.44661458333337 2.42057291666663  2.93359375 2.93359375  C 2.42057291666663 3.44661458333337  2.01171875 4.05729166666663  1.70703125 4.765625  C 1.40234375 5.47395833333337  1.25 6.21875  1.25 7  C 1.25 7.78125  1.40234375 8.52604166666663  1.70703125 9.234375  C 2.01171875 9.94270833333337  2.42057291666663 10.5533854166666  2.93359375 11.06640625  C 3.44661458333337 11.5794270833334  4.05729166666663 11.98828125  4.765625 12.29296875  C 5.47395833333337 12.59765625  6.21875 12.75  7 12.75  C 7.78125 12.75  8.52604166666663 12.59765625  9.234375 12.29296875  C 9.94270833333337 11.98828125  10.5533854166666 11.5794270833334  11.06640625 11.06640625  C 11.5794270833334 10.5533854166666  11.98828125 9.94270833333337  12.29296875 9.234375  C 12.59765625 8.52604166666663  12.75 7.78125  12.75 7  C 12.75 6.21875  12.59765625 5.47395833333337  12.29296875 4.765625  C 11.98828125 4.05729166666663  11.5794270833334 3.44661458333337  11.06640625 2.93359375  C 10.5533854166666 2.42057291666663  9.94270833333337 2.01171875  9.234375 1.70703125  Z M 4.28125 0.5546875  C 5.14583333333337 0.184895833333371  6.05208333333337 0  7 0  C 7.94791666666663 0  8.85416666666663 0.184895833333371  9.71875 0.5546875  C 10.5833333333334 0.924479166666629  11.328125 1.421875  11.953125 2.046875  C 12.578125 2.671875  13.0755208333334 3.41666666666663  13.4453125 4.28125  C 13.8151041666666 5.14583333333337  14 6.05208333333337  14 7  C 14 7.94791666666663  13.8151041666666 8.85416666666663  13.4453125 9.71875  C 13.0755208333334 10.5833333333334  12.578125 11.328125  11.953125 11.953125  C 11.328125 12.578125  10.5833333333334 13.0755208333334  9.71875 13.4453125  C 8.85416666666663 13.8151041666666  7.94791666666663 14  7 14  C 6.05208333333337 14  5.14583333333337 13.8151041666666  4.28125 13.4453125  C 3.41666666666663 13.0755208333334  2.671875 12.578125  2.046875 11.953125  C 1.421875 11.328125  0.924479166666629 10.5833333333334  0.5546875 9.71875  C 0.184895833333371 8.85416666666663  0 7.94791666666663  0 7  C 0 6.05208333333337  0.184895833333371 5.14583333333337  0.5546875 4.28125  C 0.924479166666629 3.41666666666663  1.421875 2.671875  2.046875 2.046875  C 2.671875 1.421875  3.41666666666663 0.924479166666629  4.28125 0.5546875  Z " fill-rule="nonzero" fill="#000000" stroke="none" transform="matrix(1 0 0 1 491 741 )" />
  </g>
</svg>