<?xml version="1.0" encoding="utf-8"?>
<svg version="1.1" xmlns:xlink="http://www.w3.org/1999/xlink" width="41px" height="33px" xmlns="http://www.w3.org/2000/svg">
  <g transform="matrix(1 0 0 1 -818 -78 )">
    <path d="M 818 78  L 859 78  L 859 111  L 818 111  L 818 78  " fill-rule="nonzero" fill="#cccccc" stroke="none" />
    <path d="M 820 80  L 857 80  L 857 109  L 820 109  L 820 80  " fill-rule="nonzero" fill="#ffffff" stroke="none" />
    <path d="M 841.795 87.9  C 840.409 87.9  839.32 86.811  839.32 85.425  C 839.32 84.039  840.409 82.95  841.795 82.95  C 843.181 82.95  844.27 84.039  844.27 85.425  C 844.27 86.811  843.181 87.9  841.795 87.9  " fill-rule="nonzero" fill="#cccccc" stroke="none" />
    <path d="M 821 108  L 821 93.15  L 829.75 86.4  L 842 94.9609756097561  L 849 90.45  L 856 94.9609756097561  L 856 108  L 821 108  " fill-rule="nonzero" fill="#169bd5" stroke="none" />
  </g>
</svg>