<?xml version="1.0" encoding="utf-8"?>
<svg version="1.1" xmlns:xlink="http://www.w3.org/1999/xlink" width="14px" height="16px" xmlns="http://www.w3.org/2000/svg">
  <g transform="matrix(1 0 0 1 -796 -163 )">
    <path d="M 11.6666666666666 4.57142857142856  C 11.6666666666666 5.44642857142856  11.4266493055555 6.25595238095238  10.9466145833334 7  C 11.2322048611111 7.08333333333331  11.5041232638889 7.19642857142856  11.7623697916666 7.33928571428569  C 12.0206163194445 7.48214285714286  12.291015625 7.69940476190476  12.5735677083334 7.99107142857144  C 12.8561197916666 8.2827380952381  13.09765625 8.6264880952381  13.2981770833334 9.02232142857144  C 13.4986979166666 9.41815476190476  13.6657986111111 9.93005952380952  13.7994791666666 10.5580357142857  C 13.9331597222222 11.1860119047619  14 11.8898809523809  14 12.6696428571429  C 14 13.5863095238095  13.6961805555555 14.3705357142857  13.0885416666666 15.0223214285714  C 12.4809027777778 15.6741071428571  11.7486979166666 16  10.8919270833334 16  L 3.10807291666663 16  C 2.25130208333337 16  1.51909722222217 15.6741071428571  0.911458333333371 15.0223214285714  C 0.303819444444457 14.3705357142857  0 13.5863095238095  0 12.6696428571429  C 0 11.8898809523809  0.0668402777778283 11.1860119047619  0.200520833333371 10.5580357142857  C 0.334201388888914 9.93005952380952  0.501302083333371 9.41815476190476  0.701822916666629 9.02232142857144  C 0.90234375 8.6264880952381  1.14388020833337 8.2827380952381  1.42643229166663 7.99107142857144  C 1.708984375 7.69940476190476  1.97938368055554 7.48214285714286  2.23763020833337 7.33928571428569  C 2.49587673611109 7.19642857142856  2.76779513888891 7.08333333333331  3.05338541666663 7  C 2.57335069444446 6.25595238095238  2.33333333333337 5.44642857142856  2.33333333333337 4.57142857142856  C 2.33333333333337 3.95238095238093  2.45638020833337 3.36160714285714  2.70247395833337 2.79910714285714  C 2.94856770833337 2.23660714285714  3.28125 1.75  3.70052083333337 1.33928571428569  C 4.11979166666663 0.928571428571445  4.61653645833337 0.602678571428555  5.19075520833337 0.361607142857139  C 5.76497395833337 0.120535714285694  6.36805555555554 0  7 0  C 7.63194444444446 0  8.23502604166663 0.120535714285694  8.80924479166663 0.361607142857139  C 9.38346354166663 0.602678571428555  9.88020833333337 0.928571428571445  10.2994791666666 1.33928571428569  C 10.71875 1.75  11.0514322916666 2.23660714285714  11.2975260416666 2.79910714285714  C 11.5436197916666 3.36160714285714  11.6666666666666 3.95238095238093  11.6666666666666 4.57142857142856  Z M 9.474609375 2.14732142857144  C 8.791015625 1.47767857142856  7.96614583333337 1.14285714285714  7 1.14285714285714  C 6.03385416666663 1.14285714285714  5.208984375 1.47767857142856  4.525390625 2.14732142857144  C 3.841796875 2.81696428571431  3.5 3.625  3.5 4.57142857142856  C 3.5 5.51785714285714  3.841796875 6.32589285714286  4.525390625 6.99553571428569  C 5.208984375 7.66517857142856  6.03385416666663 8  7 8  C 7.96614583333337 8  8.791015625 7.66517857142856  9.474609375 6.99553571428569  C 10.158203125 6.32589285714286  10.5 5.51785714285714  10.5 4.57142857142856  C 10.5 3.625  10.158203125 2.81696428571431  9.474609375 2.14732142857144  Z M 3.10807291666663 14.8571428571429  L 10.8919270833334 14.8571428571429  C 11.4266493055555 14.8571428571429  11.8838975694445 14.6443452380952  12.263671875 14.21875  C 12.6434461805555 13.7931547619048  12.8333333333334 13.2767857142857  12.8333333333334 12.6696428571429  C 12.8333333333334 11.2470238095238  12.5948350694445 10.125  12.1178385416666 9.30357142857144  C 11.6408420138889 8.48214285714286  10.9557291666666 8.05059523809524  10.0625 8.00892857142856  C 9.18142361111109 8.76488095238093  8.16059027777783 9.14285714285714  7 9.14285714285714  C 5.83940972222217 9.14285714285714  4.81857638888891 8.76488095238093  3.9375 8.00892857142856  C 3.04427083333337 8.05059523809524  2.35915798611109 8.48214285714286  1.88216145833337 9.30357142857144  C 1.40516493055554 10.125  1.16666666666663 11.2470238095238  1.16666666666663 12.6696428571429  C 1.16666666666663 13.2767857142857  1.35655381944446 13.7931547619048  1.736328125 14.21875  C 2.11610243055554 14.6443452380952  2.57335069444446 14.8571428571429  3.10807291666663 14.8571428571429  Z " fill-rule="nonzero" fill="#000000" stroke="none" transform="matrix(1 0 0 1 796 163 )" />
  </g>
</svg>