<?xml version="1.0" encoding="utf-8"?>
<svg version="1.1" xmlns:xlink="http://www.w3.org/1999/xlink" width="15px" height="18px" xmlns="http://www.w3.org/2000/svg">
  <g transform="matrix(1 0 0 1 -796 -227 )">
    <path d="M 4.16666666666663 5.72727272727272  L 4.16666666666663 8.18181818181819  L 10.8333333333334 8.18181818181819  L 10.8333333333334 5.72727272727272  C 10.8333333333334 4.82386363636363  10.5078125 4.05255681818181  9.85677083333337 3.41335227272728  C 9.20572916666663 2.77414772727272  8.42013888888891 2.45454545454547  7.5 2.45454545454547  C 6.57986111111109 2.45454545454547  5.79427083333337 2.77414772727272  5.14322916666663 3.41335227272728  C 4.4921875 4.05255681818181  4.16666666666663 4.82386363636363  4.16666666666663 5.72727272727272  Z M 14.6354166666666 8.53977272727272  C 14.8784722222222 8.77840909090909  15 9.06818181818181  15 9.40909090909091  L 15 16.7727272727273  C 15 17.1136363636364  14.8784722222222 17.4034090909091  14.6354166666666 17.6420454545454  C 14.3923611111111 17.8806818181818  14.0972222222222 18  13.75 18  L 1.25 18  C 0.902777777777828 18  0.607638888888914 17.8806818181818  0.364583333333371 17.6420454545454  C 0.121527777777828 17.4034090909091  0 17.1136363636364  0 16.7727272727273  L 0 9.40909090909091  C 0 9.06818181818181  0.121527777777828 8.77840909090909  0.364583333333371 8.53977272727272  C 0.607638888888914 8.30113636363637  0.902777777777828 8.18181818181819  1.25 8.18181818181819  L 1.66666666666663 8.18181818181819  L 1.66666666666663 5.72727272727272  C 1.66666666666663 4.15909090909091  2.23958333333337 2.8125  3.38541666666663 1.6875  C 4.53125 0.5625  5.90277777777783 0  7.5 0  C 9.09722222222217 0  10.46875 0.5625  11.6145833333334 1.6875  C 12.7604166666666 2.8125  13.3333333333334 4.15909090909091  13.3333333333334 5.72727272727272  L 13.3333333333334 8.18181818181819  L 13.75 8.18181818181819  C 14.0972222222222 8.18181818181819  14.3923611111111 8.30113636363637  14.6354166666666 8.53977272727272  Z " fill-rule="nonzero" fill="#000000" stroke="none" transform="matrix(1 0 0 1 796 227 )" />
  </g>
</svg>