<?xml version="1.0" encoding="utf-8"?>
<svg version="1.1" xmlns:xlink="http://www.w3.org/1999/xlink" width="16px" height="20px" xmlns="http://www.w3.org/2000/svg">
  <g transform="matrix(1 0 0 1 -794 -290 )">
    <path d="M 12.6875 12.7232142857143  C 12.7625 13.125  12.8 13.5639880952381  12.8 14.0401785714286  C 12.8 14.516369047619  12.6458333333334 14.9144345238095  12.3375 15.234375  C 12.0291666666667 15.5543154761905  11.65 15.7142857142857  11.2 15.7142857142857  L 4.79999999999995 15.7142857142857  C 4.35000000000002 15.7142857142857  3.9708333333333 15.5543154761905  3.66250000000002 15.234375  C 3.35416666666663 14.9144345238095  3.20000000000005 14.516369047619  3.20000000000005 14.0401785714286  C 3.20000000000005 13.5639880952381  3.23749999999995 13.125  3.3125 12.7232142857143  C 3.38750000000005 12.3214285714286  3.51041666666663 11.9345238095238  3.68124999999998 11.5625  C 3.85208333333333 11.1904761904762  4.10625000000005 10.8984375  4.44375000000002 10.6863839285714  C 4.78125 10.4743303571428  5.18333333333328 10.3683035714286  5.64999999999998 10.3683035714286  C 6.31666666666672 10.9263392857143  7.10000000000002 11.2053571428572  8 11.2053571428572  C 8.89999999999998 11.2053571428572  9.68333333333328 10.9263392857143  10.35 10.3683035714286  C 10.8166666666667 10.3683035714286  11.21875 10.4743303571428  11.55625 10.6863839285714  C 11.89375 10.8984375  12.1479166666667 11.1904761904762  12.31875 11.5625  C 12.4895833333334 11.9345238095238  12.6125 12.3214285714286  12.6875 12.7232142857143  Z M 10.03125 6.45647321428572  C 10.59375 6.95126488095241  10.875 7.54836309523807  10.875 8.24776785714283  C 10.875 8.94717261904759  10.59375 9.54427083333337  10.03125 10.0390625  C 9.46875 10.5338541666666  8.79166666666663 10.78125  8 10.78125  C 7.20833333333337 10.78125  6.53125 10.5338541666666  5.96875 10.0390625  C 5.40625 9.54427083333337  5.125 8.94717261904759  5.125 8.24776785714283  C 5.125 7.54836309523807  5.40625 6.95126488095241  5.96875 6.45647321428572  C 6.53125 5.96168154761904  7.20833333333337 5.71428571428572  8 5.71428571428572  C 8.79166666666663 5.71428571428572  9.46875 5.96168154761904  10.03125 6.45647321428572  Z M 14.28125 18.4654017857142  C 14.3604166666667 18.3947172619048  14.4 18.3110119047619  14.4 18.2142857142858  L 14.4 3  L 1.60000000000002 3  L 1.60000000000002 18.2142857142858  C 1.60000000000002 18.3110119047619  1.63958333333335 18.3947172619048  1.71875 18.4654017857142  C 1.79791666666665 18.5360863095239  1.89166666666665 18.5714285714286  2 18.5714285714286  L 14 18.5714285714286  C 14.1083333333333 18.5714285714286  14.2020833333333 18.5360863095239  14.28125 18.4654017857142  Z M 15.4125 0.524553571428612  C 15.8041666666667 0.874255952380963  16 1.29464285714283  16 1.78571428571428  L 16 18.2142857142858  C 16 18.7053571428572  15.8041666666667 19.125744047619  15.4125 19.4754464285714  C 15.0208333333334 19.8251488095239  14.55 20  14 20  L 2 20  C 1.45000000000005 20  0.979166666666629 19.8251488095239  0.587499999999977 19.4754464285714  C 0.195833333333326 19.125744047619  0 18.7053571428572  0 18.2142857142858  L 0 1.78571428571428  C 0 1.29464285714283  0.195833333333326 0.874255952380963  0.587499999999977 0.524553571428612  C 0.979166666666629 0.174851190476204  1.45000000000005 0  2 0  L 6.39999999999998 0  L 6.39999999999998 1.07142857142861  C 6.39999999999998 1.17559523809524  6.4375 1.26116071428572  6.51250000000005 1.328125  C 6.58749999999998 1.39508928571428  6.68333333333328 1.42857142857139  6.79999999999995 1.42857142857139  L 9.20000000000005 1.42857142857139  C 9.31666666666672 1.42857142857139  9.41250000000002 1.39508928571428  9.48749999999995 1.328125  C 9.5625 1.26116071428572  9.60000000000002 1.17559523809524  9.60000000000002 1.07142857142861  L 9.60000000000002 0  L 14 0  C 14.55 0  15.0208333333334 0.174851190476204  15.4125 0.524553571428612  Z " fill-rule="nonzero" fill="#000000" stroke="none" transform="matrix(1 0 0 1 794 290 )" />
  </g>
</svg>