<?xml version="1.0" encoding="utf-8"?>
<svg version="1.1" xmlns:xlink="http://www.w3.org/1999/xlink" width="151px" height="32px" xmlns="http://www.w3.org/2000/svg">
  <defs>
    <mask fill="white" id="clip182">
      <path d="M 0 28  L 0 4  C 0 1.76000000000001  1.8982857142857 0  4.31428571428571 0  L 61.7482142857143 0  L 146.685714285714 0  C 149.101714285714 0  151 1.76000000000001  151 4  L 151 28  C 151 30.24  149.101714285714 32  146.685714285714 32  L 4.31428571428571 32  C 1.8982857142857 32  0 30.24  0 28  Z " fill-rule="evenodd" />
    </mask>
  </defs>
  <g transform="matrix(1 0 0 1 -116 -84 )">
    <path d="M 0 28  L 0 4  C 0 1.76000000000001  1.8982857142857 0  4.31428571428571 0  L 61.7482142857143 0  L 146.685714285714 0  C 149.101714285714 0  151 1.76000000000001  151 4  L 151 28  C 151 30.24  149.101714285714 32  146.685714285714 32  L 4.31428571428571 32  C 1.8982857142857 32  0 30.24  0 28  Z " fill-rule="nonzero" fill="#ffffff" stroke="none" transform="matrix(1 0 0 1 116 84 )" />
    <path d="M 0 28  L 0 4  C 0 1.76000000000001  1.8982857142857 0  4.31428571428571 0  L 61.7482142857143 0  L 146.685714285714 0  C 149.101714285714 0  151 1.76000000000001  151 4  L 151 28  C 151 30.24  149.101714285714 32  146.685714285714 32  L 4.31428571428571 32  C 1.8982857142857 32  0 30.24  0 28  Z " stroke-width="2" stroke="#d9d9d9" fill="none" transform="matrix(1 0 0 1 116 84 )" mask="url(#clip182)" />
  </g>
</svg>