<?xml version="1.0" encoding="utf-8"?>
<svg version="1.1" xmlns:xlink="http://www.w3.org/1999/xlink" width="73px" height="32px" xmlns="http://www.w3.org/2000/svg">
  <g transform="matrix(1 0 0 1 -277 -84 )">
    <path d="M 278 88  A 3 3 0 0 1 281 85 L 346 85  A 3 3 0 0 1 349 88 L 349 112  A 3 3 0 0 1 346 115 L 281 115  A 3 3 0 0 1 278 112 L 278 88  Z " fill-rule="nonzero" fill="#ffffff" stroke="none" />
    <path d="M 277.5 88  A 3.5 3.5 0 0 1 281 84.5 L 346 84.5  A 3.5 3.5 0 0 1 349.5 88 L 349.5 112  A 3.5 3.5 0 0 1 346 115.5 L 281 115.5  A 3.5 3.5 0 0 1 277.5 112 L 277.5 88  Z " stroke-width="1" stroke-dasharray="9,4" stroke="#d9d9d9" fill="none" stroke-dashoffset="0.5" />
  </g>
</svg>