<?xml version="1.0" encoding="utf-8"?>
<svg version="1.1" xmlns:xlink="http://www.w3.org/1999/xlink" width="20px" height="17px" xmlns="http://www.w3.org/2000/svg">
  <g transform="matrix(1 0 0 1 -1365 -29 )">
    <path d="M 8.13775510204073 15.545703125  C 8.12925170068024 15.5944010416667  8.13775510204073 15.6541666666667  8.16326530612241 15.725  C 8.16326530612241 15.7604166666667  8.16751700680265 15.8489583333333  8.17602040816337 15.990625  C 8.18452380952385 16.1322916666667  8.18664965986386 16.249609375  8.18239795918362 16.342578125  C 8.17814625850338 16.435546875  8.16539115646265 16.5395833333333  8.14413265306121 16.6546875  C 8.12287414965976 16.7697916666667  8.08035714285711 16.8561197916667  8.01658163265301 16.913671875  C 7.95280612244892 16.9712239583333  7.86564625850338 17  7.75510204081638 17  L 3.67346938775518 17  C 2.66156462585036 17  1.79634353741494 16.6259114583333  1.07780612244892 15.877734375  C 0.359268707482897 15.1295572916667  0 14.2286458333333  0 13.175  L 0 3.825  C 0 2.77135416666666  0.359268707482897 1.87044270833334  1.07780612244892 1.122265625  C 1.79634353741494 0.374088541666666  2.66156462585036 0  3.67346938775518 0  L 7.75510204081638 0  C 7.86564625850338 0  7.96130952380963 0.0420572916666657  8.0420918367347 0.126171874999997  C 8.12287414965976 0.210286458333336  8.16326530612241 0.309895833333336  8.16326530612241 0.424999999999997  C 8.16326530612241 0.460416666666667  8.16751700680265 0.548958333333331  8.17602040816337 0.690624999999997  C 8.18452380952385 0.832291666666663  8.18664965986386 0.949609375000001  8.18239795918362 1.042578125  C 8.17814625850338 1.135546875  8.16539115646265 1.23958333333334  8.14413265306121 1.3546875  C 8.12287414965976 1.46979166666667  8.08035714285711 1.55611979166667  8.01658163265301 1.613671875  C 7.95280612244892 1.67122395833334  7.86564625850338 1.7  7.75510204081638 1.7  L 3.67346938775518 1.7  C 3.11224489795927 1.7  2.63180272108843 1.90807291666666  2.23214285714289 2.32421875  C 1.83248299319735 2.74036458333333  1.63265306122457 3.240625  1.63265306122457 3.825  L 1.63265306122457 13.175  C 1.63265306122457 13.759375  1.83248299319735 14.2596354166667  2.23214285714289 14.67578125  C 2.63180272108843 15.0919270833333  3.11224489795927 15.3  3.67346938775518 15.3  L 7.34693877551013 15.3  L 7.48724489795927 15.3  L 7.65306122448987 15.3  C 7.65306122448987 15.3  7.70195578231301 15.3044270833333  7.79974489795927 15.31328125  C 7.89753401360554 15.3221354166667  7.94642857142867 15.3354166666667  7.94642857142867 15.353125  C 7.94642857142867 15.3708333333333  7.98044217687084 15.3951822916667  8.04846938775518 15.426171875  C 8.11649659863951 15.4571614583333  8.14625850340144 15.4970052083333  8.13775510204073 15.545703125  Z M 19.7576530612246 7.90234375  C 19.9192176870749 8.07057291666666  20 8.26979166666666  20 8.5  C 20 8.73020833333333  19.9192176870749 8.92942708333333  19.7576530612246 9.09765625  L 12.8188775510205 16.32265625  C 12.6573129251701 16.4908854166667  12.4659863945578 16.575  12.2448979591836 16.575  C 12.0238095238096 16.575  11.8324829931973 16.4908854166667  11.670918367347 16.32265625  C 11.5093537414966 16.1544270833333  11.4285714285713 15.9552083333333  11.4285714285713 15.725  L 11.4285714285713 11.9  L 5.71428571428578 11.9  C 5.49319727891157 11.9  5.30187074829928 11.8158854166667  5.14030612244892 11.64765625  C 4.97874149659856 11.4794270833333  4.89795918367349 11.2802083333333  4.89795918367349 11.05  L 4.89795918367349 5.95  C 4.89795918367349 5.71979166666667  4.97874149659856 5.52057291666667  5.14030612244892 5.35234375  C 5.30187074829928 5.18411458333333  5.49319727891157 5.1  5.71428571428578 5.1  L 11.4285714285713 5.1  L 11.4285714285713 1.275  C 11.4285714285713 1.04479166666666  11.5093537414966 0.845572916666661  11.670918367347 0.677343749999999  C 11.8324829931973 0.509114583333336  12.0238095238096 0.424999999999997  12.2448979591836 0.424999999999997  C 12.4659863945578 0.424999999999997  12.6573129251701 0.509114583333336  12.8188775510205 0.677343749999999  L 19.7576530612246 7.90234375  Z " fill-rule="nonzero" fill="#000000" stroke="none" transform="matrix(1 0 0 1 1365 29 )" />
  </g>
</svg>