<?xml version="1.0" encoding="utf-8"?>
<svg version="1.1" xmlns:xlink="http://www.w3.org/1999/xlink" width="16px" height="19px" xmlns="http://www.w3.org/2000/svg">
  <g transform="matrix(1 0 0 1 -1280 -26 )">
    <path d="M 4.44444444444434 9.5  L 14.6666666666667 9.5  C 15.037037037037 9.5  15.351851851852 9.61545138888889  15.6111111111111 9.84635416666666  C 15.8703703703704 10.0772569444444  16 10.3576388888889  16 10.6875  L 16 17.8125  C 16 18.1423611111111  15.8703703703704 18.4227430555556  15.6111111111111 18.6536458333333  C 15.351851851852 18.8845486111111  15.037037037037 19  14.6666666666667 19  L 1.33333333333326 19  C 0.962962962963047 19  0.648148148148039 18.8845486111111  0.388888888888914 18.6536458333333  C 0.129629629629562 18.4227430555556  0 18.1423611111111  0 17.8125  L 0 10.6875  C 0 10.3576388888889  0.129629629629562 10.0772569444444  0.388888888888914 9.84635416666666  C 0.648148148148039 9.61545138888889  0.962962962963047 9.5  1.33333333333326 9.5  L 1.77777777777783 9.5  L 1.77777777777783 5.54166666666666  C 1.77777777777783 4.01605902777777  2.38657407407413 2.71104600694445  3.60416666666674 1.62662760416666  C 4.82175925925935 0.542209201388893  6.28703703703695 0  8 0  C 9.71296296296305 0  11.1782407407406 0.542209201388893  12.3958333333333 1.62662760416666  C 13.6134259259259 2.71104600694445  14.2222222222222 4.01605902777777  14.2222222222222 5.54166666666666  C 14.2222222222222 5.75607638888889  14.1342592592594 5.94162326388889  13.9583333333333 6.09830729166666  C 13.7824074074074 6.25499131944444  13.5740740740741 6.33333333333334  13.3333333333333 6.33333333333334  L 12.4444444444443 6.33333333333334  C 12.2037037037037 6.33333333333334  11.9953703703704 6.25499131944444  11.8194444444443 6.09830729166666  C 11.6435185185185 5.94162326388889  11.5555555555557 5.75607638888889  11.5555555555557 5.54166666666666  C 11.5555555555557 4.66753472222221  11.2083333333333 3.92122395833334  10.5138888888889 3.302734375  C 9.81944444444434 2.68424479166666  8.98148148148152 2.375  8 2.375  C 7.01851851851848 2.375  6.18055555555566 2.68424479166666  5.48611111111109 3.302734375  C 4.79166666666674 3.92122395833334  4.44444444444434 4.66753472222221  4.44444444444434 5.54166666666666  L 4.44444444444434 9.5  Z " fill-rule="nonzero" fill="#000000" stroke="none" transform="matrix(1 0 0 1 1280 26 )" />
  </g>
</svg>